<svg width="32" height="32" viewBox="0 0 32 32" fill="none" xmlns="http://www.w3.org/2000/svg">
<path d="M16 21.76C12.8 21.76 10.24 19.2 10.24 16C10.24 12.8 12.8 10.24 16 10.24C19.2 10.24 21.76 12.8 21.76 16C21.76 19.2 19.2 21.76 16 21.76ZM16 11.52C13.504 11.52 11.52 13.504 11.52 16C11.52 18.496 13.504 20.48 16 20.48C18.496 20.48 20.48 18.496 20.48 16C20.48 13.504 18.496 11.52 16 11.52Z" fill="#C4C4C4"/>
<path d="M17.728 28.16H14.272L13.312 25.216C12.672 25.024 12.032 24.768 11.456 24.448L8.64 25.856L6.208 23.424L7.616 20.608C7.296 20.032 7.04 19.392 6.848 18.752L3.84 17.728V14.272L6.784 13.312C6.976 12.672 7.232 12.032 7.552 11.456L6.144 8.64L8.576 6.208L11.392 7.616C11.968 7.296 12.608 7.04 13.248 6.848L14.272 3.84H17.728L18.688 6.784C19.328 6.976 19.968 7.232 20.544 7.552L23.36 6.144L25.792 8.576L24.384 11.392C24.704 11.968 24.96 12.608 25.152 13.248L28.096 14.208V17.664L25.152 18.624C24.96 19.264 24.704 19.904 24.384 20.48L25.792 23.296L23.36 25.728L20.544 24.32C19.968 24.64 19.328 24.896 18.688 25.088L17.728 28.16ZM15.168 26.88H16.832L17.728 24.128L18.048 24.064C18.816 23.872 19.52 23.552 20.224 23.168L20.544 22.976L23.104 24.256L24.256 23.104L22.976 20.544L23.168 20.224C23.552 19.584 23.872 18.816 24.064 18.048L24.128 17.728L26.88 16.832V15.168L24.128 14.272L24.064 13.952C23.872 13.184 23.552 12.48 23.168 11.776L22.976 11.456L24.256 8.896L23.104 7.744L20.544 9.024L20.224 8.832C19.52 8.448 18.816 8.128 18.048 7.936L17.728 7.872L16.832 5.12H15.168L14.272 7.872L13.952 7.936C13.184 8.128 12.48 8.448 11.776 8.832L11.456 9.024L8.896 7.744L7.744 8.896L9.024 11.456L8.832 11.776C8.448 12.416 8.128 13.184 7.936 13.952L7.872 14.272L5.12 15.168V16.832L7.872 17.728L7.936 18.048C8.128 18.816 8.448 19.52 8.832 20.224L9.024 20.544L7.744 23.104L8.896 24.256L11.456 22.976L11.776 23.168C12.48 23.552 13.184 23.872 13.952 24.064L14.272 24.128L15.168 26.88Z" fill="#C4C4C4"/>
</svg>
