<svg width="235" height="81" viewBox="0 0 235 81" fill="none" xmlns="http://www.w3.org/2000/svg">
<g filter="url(#filter0_d)">
<path d="M33.395 8.00058L33.395 28.7872L15.3933 18.3939L33.395 8.00058Z" fill="#4A82CB" stroke="white" stroke-width="0.2"/>
<path d="M33.395 29.0025L33.395 49.7891L15.3933 39.3958L33.395 29.0025Z" fill="#283B81" stroke="white" stroke-width="0.2"/>
<path d="M51.3967 18.5016L51.3967 39.2882L33.395 28.8949L51.3967 18.5016Z" fill="#6ACEE7" stroke="white" stroke-width="0.2"/>
<path d="M15.3933 18.5016L15.3933 39.2882L33.395 28.8949L15.3933 18.5016Z" fill="#3F59B0" stroke="white" stroke-width="0.2"/>
<path d="M33.395 8.00058L33.395 28.7872L51.3968 18.3939L33.395 8.00058Z" fill="#51AEE5" stroke="white" stroke-width="0.2"/>
<path d="M15.3933 39.5035L15.3933 60.2901L33.395 49.8968L15.3933 39.5035Z" fill="#26316A" stroke="white" stroke-width="0.2"/>
<path d="M33.395 29.0025L33.395 49.7891L51.3968 39.3958L33.395 29.0025Z" fill="#9FDFE9" stroke="white" stroke-width="0.2"/>
<path d="M33.395 50.0045L33.395 70.7911L15.3933 60.3978L33.395 50.0045Z" fill="#1E2248" stroke="white" stroke-width="0.2"/>
</g>
<g filter="url(#filter1_d)">
<path d="M81.1726 17.8C83.4606 17.8 85.2546 18.346 86.5546 19.438C87.8546 20.5127 88.5046 22.012 88.5046 23.936C88.5046 25.8427 87.8546 27.342 86.5546 28.434C85.2546 29.5087 83.4606 30.046 81.1726 30.046H75.9726V36H74.6466V17.8H81.1726ZM81.1726 28.85C83.1139 28.85 84.5959 28.4253 85.6186 27.576C86.6413 26.7267 87.1526 25.5133 87.1526 23.936C87.1526 22.3587 86.6413 21.1453 85.6186 20.296C84.5959 19.4293 83.1139 18.996 81.1726 18.996H75.9726V28.85H81.1726ZM100.955 36.13C99.1692 36.13 97.5572 35.7313 96.1185 34.934C94.6799 34.1193 93.5445 33.01 92.7125 31.606C91.8979 30.202 91.4905 28.6333 91.4905 26.9C91.4905 25.1667 91.8979 23.598 92.7125 22.194C93.5445 20.79 94.6799 19.6893 96.1185 18.892C97.5572 18.0773 99.1692 17.67 100.955 17.67C102.74 17.67 104.352 18.0687 105.791 18.866C107.229 19.6633 108.356 20.764 109.171 22.168C110.003 23.572 110.419 25.1493 110.419 26.9C110.419 28.6507 110.003 30.228 109.171 31.632C108.356 33.036 107.229 34.1367 105.791 34.934C104.352 35.7313 102.74 36.13 100.955 36.13ZM100.955 34.908C102.48 34.908 103.858 34.5613 105.089 33.868C106.319 33.1747 107.29 32.2213 108.001 31.008C108.711 29.7773 109.067 28.408 109.067 26.9C109.067 25.392 108.711 24.0313 108.001 22.818C107.29 21.5873 106.319 20.6253 105.089 19.932C103.858 19.2387 102.48 18.892 100.955 18.892C99.4292 18.892 98.0425 19.2387 96.7945 19.932C95.5639 20.6253 94.5932 21.5873 93.8825 22.818C93.1719 24.0313 92.8165 25.392 92.8165 26.9C92.8165 28.408 93.1719 29.7773 93.8825 31.008C94.5932 32.2213 95.5639 33.1747 96.7945 33.868C98.0425 34.5613 99.4292 34.908 100.955 34.908ZM127.654 36L123.312 29.916C122.67 30.0027 122.081 30.046 121.544 30.046H116.344V36H115.018V17.8H121.544C123.832 17.8 125.626 18.346 126.926 19.438C128.226 20.5127 128.876 22.012 128.876 23.936C128.876 25.3747 128.503 26.588 127.758 27.576C127.03 28.5467 125.981 29.2313 124.612 29.63L129.162 36H127.654ZM121.544 28.876C123.485 28.876 124.967 28.4513 125.99 27.602C127.012 26.7353 127.524 25.5133 127.524 23.936C127.524 22.3587 127.012 21.1453 125.99 20.296C124.967 19.4293 123.485 18.996 121.544 18.996H116.344V28.876H121.544ZM136.961 18.996H130.409V17.8H144.839V18.996H138.287V36H136.961V18.996ZM158.471 30.878H147.915L145.601 36H144.171L152.543 17.8H153.869L162.241 36H160.811L158.471 30.878ZM157.977 29.76L153.193 19.256L148.435 29.76H157.977ZM165.545 17.8H166.871V34.804H177.349V36H165.545V17.8ZM187.432 17.8H194.634C196.523 17.8 198.196 18.19 199.652 18.97C201.125 19.75 202.269 20.8333 203.084 22.22C203.898 23.5893 204.306 25.1493 204.306 26.9C204.306 28.6507 203.898 30.2193 203.084 31.606C202.269 32.9753 201.125 34.05 199.652 34.83C198.196 35.61 196.523 36 194.634 36H187.432V17.8ZM194.53 34.804C196.211 34.804 197.693 34.4747 198.976 33.816C200.258 33.14 201.246 32.204 201.94 31.008C202.633 29.812 202.98 28.4427 202.98 26.9C202.98 25.3573 202.633 23.988 201.94 22.792C201.246 21.596 200.258 20.6687 198.976 20.01C197.693 19.334 196.211 18.996 194.53 18.996H188.758V34.804H194.53ZM216.634 36.13C214.849 36.13 213.237 35.7313 211.798 34.934C210.36 34.1193 209.224 33.01 208.392 31.606C207.578 30.202 207.17 28.6333 207.17 26.9C207.17 25.1667 207.578 23.598 208.392 22.194C209.224 20.79 210.36 19.6893 211.798 18.892C213.237 18.0773 214.849 17.67 216.634 17.67C218.42 17.67 220.032 18.0687 221.47 18.866C222.909 19.6633 224.036 20.764 224.85 22.168C225.682 23.572 226.098 25.1493 226.098 26.9C226.098 28.6507 225.682 30.228 224.85 31.632C224.036 33.036 222.909 34.1367 221.47 34.934C220.032 35.7313 218.42 36.13 216.634 36.13ZM216.634 34.908C218.16 34.908 219.538 34.5613 220.768 33.868C221.999 33.1747 222.97 32.2213 223.68 31.008C224.391 29.7773 224.746 28.408 224.746 26.9C224.746 25.392 224.391 24.0313 223.68 22.818C222.97 21.5873 221.999 20.6253 220.768 19.932C219.538 19.2387 218.16 18.892 216.634 18.892C215.109 18.892 213.722 19.2387 212.474 19.932C211.244 20.6253 210.273 21.5873 209.562 22.818C208.852 24.0313 208.496 25.392 208.496 26.9C208.496 28.408 208.852 29.7773 209.562 31.008C210.273 32.2213 211.244 33.1747 212.474 33.868C213.722 34.5613 215.109 34.908 216.634 34.908Z" fill="white"/>
<path d="M81.2759 62.2532C79.7708 62.2532 78.4063 61.9297 77.1825 61.2826C75.9728 60.6215 75.0163 59.7142 74.3129 58.5607C73.6237 57.3932 73.279 56.0779 73.279 54.615C73.279 53.1521 73.6237 51.8439 74.3129 50.6904C75.0163 49.5229 75.9728 48.6156 77.1825 47.9685C78.4063 47.3074 79.7778 46.9768 81.297 46.9768C82.5771 46.9768 83.7306 47.2019 84.7574 47.652C85.7984 48.1021 86.6705 48.7492 87.3738 49.5932L85.1794 51.6188C84.1807 50.4653 82.9428 49.8886 81.4658 49.8886C80.5515 49.8886 79.7356 50.0926 79.0182 50.5005C78.3008 50.8944 77.7382 51.45 77.3302 52.1674C76.9364 52.8848 76.7394 53.7007 76.7394 54.615C76.7394 55.5293 76.9364 56.3452 77.3302 57.0626C77.7382 57.78 78.3008 58.3427 79.0182 58.7506C79.7356 59.1445 80.5515 59.3414 81.4658 59.3414C82.9428 59.3414 84.1807 58.7576 85.1794 57.5901L87.3738 59.6157C86.6705 60.4738 85.7984 61.1279 84.7574 61.578C83.7165 62.0281 82.556 62.2532 81.2759 62.2532ZM96.526 62.2532C94.9927 62.2532 93.6071 61.9226 92.3693 61.2615C91.1455 60.6004 90.1819 59.6931 89.4786 58.5396C88.7893 57.3721 88.4447 56.0639 88.4447 54.615C88.4447 53.1661 88.7893 51.865 89.4786 50.7115C90.1819 49.544 91.1455 48.6296 92.3693 47.9685C93.6071 47.3074 94.9927 46.9768 96.526 46.9768C98.0592 46.9768 99.4378 47.3074 100.662 47.9685C101.885 48.6296 102.849 49.544 103.552 50.7115C104.256 51.865 104.607 53.1661 104.607 54.615C104.607 56.0639 104.256 57.3721 103.552 58.5396C102.849 59.6931 101.885 60.6004 100.662 61.2615C99.4378 61.9226 98.0592 62.2532 96.526 62.2532ZM96.526 59.3414C97.3981 59.3414 98.1858 59.1445 98.8892 58.7506C99.5925 58.3427 100.141 57.78 100.535 57.0626C100.943 56.3452 101.147 55.5293 101.147 54.615C101.147 53.7007 100.943 52.8848 100.535 52.1674C100.141 51.45 99.5925 50.8944 98.8892 50.5005C98.1858 50.0926 97.3981 49.8886 96.526 49.8886C95.6538 49.8886 94.8661 50.0926 94.1628 50.5005C93.4594 50.8944 92.9038 51.45 92.4959 52.1674C92.102 52.8848 91.9051 53.7007 91.9051 54.615C91.9051 55.5293 92.102 56.3452 92.4959 57.0626C92.9038 57.78 93.4594 58.3427 94.1628 58.7506C94.8661 59.1445 95.6538 59.3414 96.526 59.3414ZM120.722 47.23V62H117.916L110.552 53.0325V62H107.176V47.23H110.004L117.346 56.1975V47.23H120.722ZM124.217 47.23H130.927C132.53 47.23 133.944 47.5395 135.168 48.1584C136.406 48.7633 137.362 49.6213 138.037 50.7326C138.727 51.8439 139.071 53.138 139.071 54.615C139.071 56.092 138.727 57.3861 138.037 58.4974C137.362 59.6087 136.406 60.4738 135.168 61.0927C133.944 61.6976 132.53 62 130.927 62H124.217V47.23ZM130.758 59.1937C132.235 59.1937 133.409 58.7858 134.282 57.9699C135.168 57.14 135.611 56.0217 135.611 54.615C135.611 53.2083 135.168 52.0971 134.282 51.2812C133.409 50.4513 132.235 50.0363 130.758 50.0363H127.635V59.1937H130.758ZM148.802 62.2532C147.269 62.2532 145.883 61.9226 144.645 61.2615C143.422 60.6004 142.458 59.6931 141.755 58.5396C141.065 57.3721 140.721 56.0639 140.721 54.615C140.721 53.1661 141.065 51.865 141.755 50.7115C142.458 49.544 143.422 48.6296 144.645 47.9685C145.883 47.3074 147.269 46.9768 148.802 46.9768C150.335 46.9768 151.714 47.3074 152.938 47.9685C154.161 48.6296 155.125 49.544 155.828 50.7115C156.532 51.865 156.883 53.1661 156.883 54.615C156.883 56.0639 156.532 57.3721 155.828 58.5396C155.125 59.6931 154.161 60.6004 152.938 61.2615C151.714 61.9226 150.335 62.2532 148.802 62.2532ZM148.802 59.3414C149.674 59.3414 150.462 59.1445 151.165 58.7506C151.869 58.3427 152.417 57.78 152.811 57.0626C153.219 56.3452 153.423 55.5293 153.423 54.615C153.423 53.7007 153.219 52.8848 152.811 52.1674C152.417 51.45 151.869 50.8944 151.165 50.5005C150.462 50.0926 149.674 49.8886 148.802 49.8886C147.93 49.8886 147.142 50.0926 146.439 50.5005C145.736 50.8944 145.18 51.45 144.772 52.1674C144.378 52.8848 144.181 53.7007 144.181 54.615C144.181 55.5293 144.378 56.3452 144.772 57.0626C145.18 57.78 145.736 58.3427 146.439 58.7506C147.142 59.1445 147.93 59.3414 148.802 59.3414ZM172.893 62L172.872 53.138L168.525 60.4386H166.985L162.659 53.3279V62H159.452V47.23H162.28L167.808 56.4085L173.252 47.23H176.058L176.1 62H172.893ZM179.604 47.23H183.023V62H179.604V47.23ZM182.242 42.9889H185.787L181.968 46.0273H179.393L182.242 42.9889ZM200.074 47.23V62H197.268L189.904 53.0325V62H186.528V47.23H189.355L196.698 56.1975V47.23H200.074ZM203.569 47.23H206.987V62H203.569V47.23ZM217.645 62.2532C216.112 62.2532 214.726 61.9226 213.488 61.2615C212.264 60.6004 211.301 59.6931 210.598 58.5396C209.908 57.3721 209.564 56.0639 209.564 54.615C209.564 53.1661 209.908 51.865 210.598 50.7115C211.301 49.544 212.264 48.6296 213.488 47.9685C214.726 47.3074 216.112 46.9768 217.645 46.9768C219.178 46.9768 220.557 47.3074 221.781 47.9685C223.004 48.6296 223.968 49.544 224.671 50.7115C225.375 51.865 225.726 53.1661 225.726 54.615C225.726 56.0639 225.375 57.3721 224.671 58.5396C223.968 59.6931 223.004 60.6004 221.781 61.2615C220.557 61.9226 219.178 62.2532 217.645 62.2532ZM217.645 59.3414C218.517 59.3414 219.305 59.1445 220.008 58.7506C220.711 58.3427 221.26 57.78 221.654 57.0626C222.062 56.3452 222.266 55.5293 222.266 54.615C222.266 53.7007 222.062 52.8848 221.654 52.1674C221.26 51.45 220.711 50.8944 220.008 50.5005C219.305 50.0926 218.517 49.8886 217.645 49.8886C216.773 49.8886 215.985 50.0926 215.282 50.5005C214.578 50.8944 214.023 51.45 213.615 52.1674C213.221 52.8848 213.024 53.7007 213.024 54.615C213.024 55.5293 213.221 56.3452 213.615 57.0626C214.023 57.78 214.578 58.3427 215.282 58.7506C215.985 59.1445 216.773 59.3414 217.645 59.3414Z" fill="#E1E1E1"/>
</g>
<defs>
<filter id="filter0_d" x="0.142578" y="0.544189" width="66.5051" height="80.4202" filterUnits="userSpaceOnUse" color-interpolation-filters="sRGB">
<feFlood flood-opacity="0" result="BackgroundImageFix"/>
<feColorMatrix in="SourceAlpha" type="matrix" values="0 0 0 0 0 0 0 0 0 0 0 0 0 0 0 0 0 0 127 0"/>
<feOffset dy="4"/>
<feGaussianBlur stdDeviation="3"/>
<feColorMatrix type="matrix" values="0 0 0 0 1 0 0 0 0 1 0 0 0 0 1 0 0 0 0.12 0"/>
<feBlend mode="normal" in2="BackgroundImageFix" result="effect1_dropShadow"/>
<feBlend mode="normal" in="SourceGraphic" in2="effect1_dropShadow" result="shape"/>
</filter>
<filter id="filter1_d" x="65.2791" y="11.6699" width="168.819" height="60.5832" filterUnits="userSpaceOnUse" color-interpolation-filters="sRGB">
<feFlood flood-opacity="0" result="BackgroundImageFix"/>
<feColorMatrix in="SourceAlpha" type="matrix" values="0 0 0 0 0 0 0 0 0 0 0 0 0 0 0 0 0 0 127 0"/>
<feOffset dy="2"/>
<feGaussianBlur stdDeviation="4"/>
<feColorMatrix type="matrix" values="0 0 0 0 0.895833 0 0 0 0 0.895833 0 0 0 0 0.895833 0 0 0 0.08 0"/>
<feBlend mode="normal" in2="BackgroundImageFix" result="effect1_dropShadow"/>
<feBlend mode="normal" in="SourceGraphic" in2="effect1_dropShadow" result="shape"/>
</filter>
</defs>
</svg>
