<svg width="64" height="64" viewBox="0 0 64 64" fill="none" xmlns="http://www.w3.org/2000/svg">
<path d="M56.8889 0.444336C58.6667 0.444336 60.1728 1.06162 61.4074 2.29619C62.642 3.53076 63.2593 4.98755 63.2593 6.66656V44.5925C63.2593 46.3703 62.642 47.8764 61.4074 49.111C60.1728 50.3456 58.6667 50.9629 56.8889 50.9629H18.963C17.1852 50.9629 15.679 50.3456 14.4444 49.111C13.2099 47.8764 12.5926 46.3703 12.5926 44.5925V6.66656C12.5926 4.98755 13.2099 3.53076 14.4444 2.29619C15.679 1.06162 17.1852 0.444336 18.963 0.444336H56.8889ZM30.0741 24.148V20.8888C30.0741 19.6048 29.6049 18.4937 28.6667 17.5554C27.7284 16.6172 26.6173 16.148 25.3333 16.148H17.3333V35.111H22.0741V28.8888H25.3333C26.6173 28.8888 27.7284 28.4196 28.6667 27.4814C29.6049 26.5431 30.0741 25.432 30.0741 24.148ZM45.7778 30.3703V20.8888C45.7778 19.6048 45.3333 18.4937 44.4444 17.5554C43.5556 16.6172 42.4198 16.148 41.037 16.148H33.1852V35.111H41.037C42.4198 35.111 43.5556 34.6666 44.4444 33.7777C45.3333 32.8888 45.7778 31.753 45.7778 30.3703ZM58.5185 20.8888V16.148H49.037V35.111H53.7778V28.8888H58.5185V24.148H53.7778V20.8888H58.5185ZM22.0741 24.148V20.8888H25.3333V24.148H22.0741ZM6.37037 13.0369V57.3332H50.5185V63.5554H6.37037C4.59259 63.5554 3.08642 62.9382 1.85185 61.7036C0.617284 60.469 0 59.0122 0 57.3332V13.0369H6.37037ZM37.9259 30.3703V20.8888H41.037V30.3703H37.9259Z" fill="black"/>
</svg>

